HIERARCHY
ROOT hip
{
  OFFSET 0 0 0
  CHANNELS 6 Xposition Yposition Zposition Zrotation Yrotation Xrotation
  JOINT abdomen
  {
    OFFSET 0 20.6881 -0.73152
    CHANNELS 3 Zrotation Xrotation Yrotation
    JOINT chest
    {
      OFFSET 0 11.7043 -0.48768
      CHANNELS 3 Zrotation Xrotation Yrotation
      JOINT neck
      {
        OFFSET 0 22.1894 -2.19456
        CHANNELS 3 Zrotation Xrotation Yrotation
        JOINT head
        {
          OFFSET -0.24384 7.07133 1.2192
          CHANNELS 3 Zrotation Xrotation Yrotation
          JOINT leftEye
          {
            OFFSET 4.14528 8.04674 8.04672
            CHANNELS 3 Zrotation Xrotation Yrotation
            End Site
            {
              OFFSET 1 0 0
            }
          }
          JOINT rightEye
          {
            OFFSET -3.6576 8.04674 8.04672
            CHANNELS 3 Zrotation Xrotation Yrotation
            End Site
            {
              OFFSET 1 0 0
            }
          }
        }
      }
      JOINT rCollar
      {
        OFFSET -2.68224 19.2634 -4.8768
        CHANNELS 3 Zrotation Xrotation Yrotation
        JOINT rShldr
        {
          OFFSET -8.77824 -1.95073 1.46304
          CHANNELS 3 Zrotation Xrotation Yrotation
          JOINT rForeArm
          {
            OFFSET -28.1742 -1.7115 0.48768
            CHANNELS 3 Zrotation Xrotation Yrotation
            JOINT rHand
            {
              OFFSET -22.5879 0.773209 7.07136
              CHANNELS 3 Zrotation Xrotation Yrotation
              JOINT rThumb1
              {
                OFFSET -1.2192 -0.487915 3.41376
                CHANNELS 3 Zrotation Xrotation Yrotation
                JOINT rThumb2
                {
                  OFFSET -3.37035 -0.52449 3.41376
                  CHANNELS 3 Zrotation Xrotation Yrotation
                  End Site
                  {
                    OFFSET -1.78271 -1.18214 1.43049
                  }
                }
              }
              JOINT rIndex1
              {
                OFFSET -7.75947 0.938293 5.60832
                CHANNELS 3 Zrotation Xrotation Yrotation
                JOINT rIndex2
                {
                  OFFSET -2.54057 -0.884171 1.56538
                  CHANNELS 3 Zrotation Xrotation Yrotation
                  End Site
                  {
                    OFFSET -1.62519 -0.234802 1.16502
                  }
                }
              }
              JOINT rMid1
              {
                OFFSET -8.24714 1.18213 3.41376
                CHANNELS 3 Zrotation Xrotation Yrotation
                JOINT rMid2
                {
                  OFFSET -3.10165 -0.590103 1.0647
                  CHANNELS 3 Zrotation Xrotation Yrotation
                  End Site
                  {
                    OFFSET -2.48547 -0.328903 0.83742
                  }
                }
              }
              JOINT rRing1
              {
                OFFSET -8.82822 0.546677 1.51678
                CHANNELS 3 Zrotation Xrotation Yrotation
                JOINT rRing2
                {
                  OFFSET -2.60934 -0.819778 -0.0198488
                  CHANNELS 3 Zrotation Xrotation Yrotation
                  End Site
                  {
                    OFFSET -2.33842 -0.294052 0.168128
                  }
                }
              }
              JOINT rPinky1
              {
                OFFSET -8.27202 -0.0477905 -0.4584
                CHANNELS 3 Zrotation Xrotation Yrotation
                JOINT rPinky2
                {
                  OFFSET -1.82734 -0.647385 -0.700984
                  CHANNELS 3 Zrotation Xrotation Yrotation
                  End Site
                  {
                    OFFSET -1.69225 -0.51767 -0.607171
                  }
                }
              }
            }
          }
        }
      }
      JOINT lCollar
      {
        OFFSET 2.68224 19.2634 -4.8768
        CHANNELS 3 Zrotation Xrotation Yrotation
        JOINT lShldr
        {
          OFFSET 8.77824 -1.95073 1.46304
          CHANNELS 3 Zrotation Xrotation Yrotation
          JOINT lForeArm
          {
            OFFSET 28.1742 -1.7115 0.48768
            CHANNELS 3 Zrotation Xrotation Yrotation
            JOINT lHand
            {
              OFFSET 22.5879 0.773209 7.07136
              CHANNELS 3 Zrotation Xrotation Yrotation
              JOINT lThumb1
              {
                OFFSET 1.2192 -0.487915 3.41376
                CHANNELS 3 Zrotation Xrotation Yrotation
                JOINT lThumb2
                {
                  OFFSET 3.37035 -0.52449 3.41376
                  CHANNELS 3 Zrotation Xrotation Yrotation
                  End Site
                  {
                    OFFSET 1.78271 -1.18214 1.43049
                  }
                }
              }
              JOINT lIndex1
              {
                OFFSET 7.75947 0.938293 5.60832
                CHANNELS 3 Zrotation Xrotation Yrotation
                JOINT lIndex2
                {
                  OFFSET 2.54057 -0.884171 1.56538
                  CHANNELS 3 Zrotation Xrotation Yrotation
                  End Site
                  {
                    OFFSET 1.62519 -0.234802 1.16502
                  }
                }
              }
              JOINT lMid1
              {
                OFFSET 8.24714 1.18213 3.41376
                CHANNELS 3 Zrotation Xrotation Yrotation
                JOINT lMid2
                {
                  OFFSET 3.10165 -0.590103 1.0647
                  CHANNELS 3 Zrotation Xrotation Yrotation
                  End Site
                  {
                    OFFSET 2.48547 -0.328903 0.83742
                  }
                }
              }
              JOINT lRing1
              {
                OFFSET 8.82822 0.546677 1.51678
                CHANNELS 3 Zrotation Xrotation Yrotation
                JOINT lRing2
                {
                  OFFSET 2.60934 -0.819778 -0.0198488
                  CHANNELS 3 Zrotation Xrotation Yrotation
                  End Site
                  {
                    OFFSET 2.33842 -0.294052 0.168128
                  }
                }
              }
              JOINT lPinky1
              {
                OFFSET 8.27202 -0.0477905 -0.4584
                CHANNELS 3 Zrotation Xrotation Yrotation
                JOINT lPinky2
                {
                  OFFSET 1.82734 -0.647385 -0.700984
                  CHANNELS 3 Zrotation Xrotation Yrotation
                  End Site
                  {
                    OFFSET 1.69225 -0.51767 -0.607171
                  }
                }
              }
            }
          }
        }
      }
    }
  }
  JOINT rButtock
  {
    OFFSET -8.77824 4.35084 1.2192
    CHANNELS 3 Zrotation Xrotation Yrotation
    JOINT rThigh
    {
      OFFSET 0 -1.70687 -2.19456
      CHANNELS 3 Zrotation Xrotation Yrotation
      JOINT rShin
      {
        OFFSET 0 -36.8199 0.73152
        CHANNELS 3 Zrotation Xrotation Yrotation
        JOINT rFoot
        {
          OFFSET 0.73152 -45.1104 -5.12064
          CHANNELS 3 Zrotation Xrotation Yrotation
          End Site
          {
            OFFSET -1.1221 -3.69964 12.103
          }
        }
      }
    }
  }
  JOINT lButtock
  {
    OFFSET 8.77824 4.35084 1.2192
    CHANNELS 3 Zrotation Xrotation Yrotation
    JOINT lThigh
    {
      OFFSET 0 -1.70687 -2.19456
      CHANNELS 3 Zrotation Xrotation Yrotation
      JOINT lShin
      {
        OFFSET 0 -36.8199 0.73152
        CHANNELS 3 Zrotation Xrotation Yrotation
        JOINT lFoot
        {
          OFFSET -0.73152 -45.1104 -5.12064
          CHANNELS 3 Zrotation Xrotation Yrotation
          End Site
          {
            OFFSET 1.1221 -3.69964 12.103
          }
        }
      }
    }
  }
}
MOTION
Frames:	8
Frame Time:	0.03333
0.0 0.0 0.0 0.0 0.0 0.0 0.0 0.0 0.0 0.0 0.0 0.0 0.0 0.0 0.0 0.0 0.0 0.0 0.0 0.0 0.0 0.0 0.0 0.0 0.0 0.0 0.0 0.0 0.0 0.0 0.0 0.0 0.0 0.0 0.0 0.0 0.0 0.0 0.0 0.0 0.0 0.0 0.0 0.0 0.0 0.0 0.0 0.0 0.0 0.0 0.0 0.0 0.0 0.0 0.0 0.0 0.0 0.0 0.0 0.0 0.0 0.0 0.0 0.0 0.0 0.0 0.0 0.0 0.0 0.0 0.0 0.0 0.0 0.0 0.0 0.0 0.0 0.0 0.0 0.0 0.0 0.0 0.0 0.0 0.0 0.0 0.0 0.0 0.0 0.0 0.0 0.0 0.0 0.0 0.0 0.0 0.0 0.0 0.0 0.0 0.0 0.0 0.0 0.0 0.0 0.0 0.0 0.0 0.0 0.0 0.0 0.0 0.0 0.0 0.0 0.0 0.0 0.0 0.0 0.0 0.0 0.0 0.0 0.0 0.0 0.0 0.0 0.0 0.0 0.0 0.0 0.0
-0.5494 72.5281 -0.1545 3.091242 65.998517 1.017742 -3.431897 1.837849 -147.64221 -12.884602 0.715062 95.936669 -9.869025 -6.658693 -102.666005 31.287774 47.548437 136.31493 105.929575 -6.687273 8.855378 159.646383 -1.856609 10.315569 -65.859695 -77.513245 -158.549801 11.489635 -0.104916 -2.489342 -160.736571 81.968642 -47.425994 -141.10558 40.879403 105.82381 -100.879808 82.444327 16.723449 70.752819 -29.979882 94.036141 -5.52588 36.765327 43.615356 -77.494996 -41.41204 -125.683719 123.168612 -60.849131 -170.393403 159.05717 -29.876924 -81.691034 -85.307205 49.915117 -94.03934 -105.926457 0.432674 -39.859729 132.6265 -37.868903 -16.530082 126.864298 -0.046754 -26.91843 86.975712 -78.280374 -169.37242 -18.858015 -39.536827 -6.358685 -3.429212 0.713014 -169.007747 -151.910359 64.262064 -160.786495 -172.413689 12.683117 -168.951391 -58.240003 35.235191 -164.370531 -159.558688 7.141345 21.668829 -178.185013 -30.982181 -43.287735 178.870273 40.314111 -44.873238 -173.295578 7.14809 55.614296 -44.951439 -35.791362 65.715424 -85.338036 22.487378 37.793743 29.331632 -39.101808 149.406852 63.535556 2.195022 -61.366679 67.068406 -2.567976 73.820682 -30.849102 64.34326 -79.819529 1.448967 -5.042996 35.411945 77.252716 3.690446 -86.848203 26.198855 -53.880024 34.13925 4.258991 58.22449 177.762752 6.781855 -2.520384 84.86607 39.675466 -65.62796 -142.666605
-1.5792000000000002 69.80239999999999 3.5041999999999995 176.748081 5.473743 -154.317784 -27.922218 -16.820839 118.635932 -42.405775 6.869657 -113.193837 21.070783 23.344427 23.093854 -15.533748 -11.537952 -56.560508 -116.15786 18.853352 29.846662 -169.696486 -6.007974 -60.404006 -137.986609 -32.277504 -170.721957 173.834996 -58.964184 155.607287 -62.260266 13.042851 -28.331858 152.273122 -54.539353 136.449489 4.995953 5.975177 -20.78203 -35.278782 -44.042297 -117.060128 -16.167697 -4.387893 14.8171 40.142509 -13.11839 -39.497325 -14.569768 -47.004014 -50.916921 89.892923 -28.127598 70.70946 -98.970476 -21.851237 -103.937104 -113.413095 -39.332942 -151.548044 116.08776 36.232408 154.512977 55.08301 -20.832334 170.909212 -88.811551 -82.430226 -75.622297 -48.866957 -35.802434 -44.588095 132.537759 11.813573 169.723773 -11.293544 -82.523677 -4.608885 72.031999 46.104102 -44.740229 -70.658193 0.323015 -11.625154 136.578484 61.874022 -135.228993 178.903841 2.167874 -75.936203 -1.653177 -0.110429 17.46819 -6.490318 -0.577475 -63.967157 135.712343 2.682527 -173.212116 3.036961 -84.485679 74.486127 123.096646 -36.100516 81.230165 102.787982 -40.304857 73.450722 -4.663827 5.201147 41.984466 -58.227631 -29.336008 -125.82861 -59.722042 44.241064 -91.923435 166.734284 7.841326 -145.506553 115.081465 65.931916 17.723231 -145.832322 2.121772 -0.0 50.142739 47.54733 48.375824 -39.903246 86.090737 -54.7964
-3.2528 67.7895 3.8862 178.030736 7.791517 -171.121814 -13.807288 -6.772159 -92.306811 12.842018 13.13518 114.480201 21.798553 -7.814803 66.49911 -9.055842 2.704817 -85.47235 -178.037732 -1.77604 -84.295195 136.465328 -28.635009 65.169971 -2.495193 34.860557 15.539672 19.104488 -0.687184 -6.428506 -50.654842 -11.976968 7.046025 -132.787261 -70.369158 -141.315105 103.116315 -61.400039 -2.259315 92.004953 1.607939 154.140886 54.013477 27.730366 -46.165253 -170.244259 -35.061662 127.07881 0.352842 -48.027212 -39.229123 148.015973 -56.035501 91.218911 64.414218 -2.821476 24.097076 -64.264475 17.740644 -49.467551 -26.460072 -37.744293 75.736578 -174.482031 -5.789545 21.861163 166.585905 -17.728941 -151.083882 -111.899736 -69.242089 -58.412308 -13.827564 41.113954 78.921893 145.690917 17.959225 -125.721873 -26.021104 3.699947 24.377286 -6.998742 41.984395 -4.625045 17.558374 16.900063 59.453953 170.311217 -32.168427 -47.952041 91.768965 -30.313507 178.811725 65.77423 -63.937737 -171.119096 -51.264777 1.314188 0.31936 -122.194444 -31.021633 -145.743701 53.512516 -26.159974 -3.974877 -1.614724 -46.742176 93.825576 24.324933 20.314861 69.679056 -68.761536 13.290542 -46.324954 33.290241 50.987253 -117.029735 -173.649632 -63.389569 -60.375257 -88.722279 -6.977768 -0.90159 95.745105 -35.183779 -81.686423 -67.663051 -8.716219 -123.314593 146.244421 42.990197 133.876589
-3.6165999999999996 70.7643 2.6783 179.439611 11.019787 176.37588 -1.984139 7.020725 15.824506 4.447351 5.807684 3.366773 7.082506 -15.099071 -75.064267 14.346183 -5.945114 64.141343 151.782246 20.533922 -71.557327 143.70032 -26.437768 71.247187 -118.062236 58.253122 103.792145 -101.013646 60.644116 103.63268 6.485797 -74.158962 -75.691772 -134.479488 31.07312 132.526149 -129.08067 84.021837 128.879177 -33.707332 -43.132905 -110.389438 -120.213681 48.097973 -178.084638 -95.327041 -2.370768 126.901241 -26.022212 82.026291 30.717294 -161.378126 -65.451267 -145.031374 -93.360309 -1.133318 174.841884 100.815488 -6.143707 -20.73785 -83.276613 45.743958 100.407321 87.913527 31.935259 174.269377 155.800103 -31.864069 -176.889104 116.175087 13.989144 -140.578296 13.846584 -58.51247 -30.369887 4.372861 -32.285356 17.958103 -1.754096 16.103381 12.600794 81.44195 -30.414788 -123.194555 87.53937 -70.261068 142.824084 73.229089 57.917681 -78.785316 77.290535 -8.537913 -138.38451 17.209045 25.755844 -154.469739 77.83473 -9.479988 109.798164 33.65538 3.886764 -159.080345 51.008418 55.877066 -39.606678 63.820948 41.223057 -123.664849 -2.036923 0.846497 67.442692 -29.872737 -2.118672 -93.492699 -20.407799 62.53277 -122.488528 82.684856 -26.642739 -173.679167 -22.938614 26.556778 43.428687 -14.325134 -53.74813 0.0 26.754497 42.948542 18.531392 -148.547142 2.775438 32.502544
-3.0561000000000003 71.47879999999999 2.68 -178.815064 4.274344 176.469594 0.576797 4.085807 131.49749 1.288027 -10.248506 -117.628069 20.093753 4.87795 -112.004304 47.85419 -23.007415 90.832081 147.973892 1.984847 -6.908346 -48.173501 26.945262 -56.374244 -177.294268 -34.195595 167.865427 -3.490707 -6.142018 -16.326819 -172.746114 69.388344 -136.067203 -1.245434 -61.766786 5.039419 8.700647 -7.941019 -39.917442 -63.428641 0.53261 36.499634 -6.087598 -2.495523 -19.193094 -7.376581 10.484074 -118.528657 -5.892614 -51.253947 -34.362122 -157.114593 -23.161304 89.967167 -22.807871 79.016182 68.947035 118.037544 15.58833 -145.509952 32.253673 -22.328906 -20.761289 -151.797748 43.066833 -54.722991 156.199255 -15.559579 -169.485032 118.184654 7.293965 -149.250273 -171.612972 49.369157 -110.618731 169.608001 23.257028 -131.964506 162.782773 -14.002727 -89.153878 143.41461 15.263594 -52.524161 -11.171608 3.275899 -7.938604 -9.295389 -8.583583 33.764834 -93.778765 -27.981135 -9.759674 115.196982 -3.404473 25.229582 -26.843651 -5.373801 41.873443 112.433109 17.405762 -16.585128 -177.222887 2.39572 141.57228 79.846731 83.036761 -77.514843 -28.142957 -4.764662 40.667833 -7.186589 -23.952048 -180.0 -69.809851 -6.038117 -91.841301 29.356664 6.777543 -177.412605 97.029753 60.13381 -14.356524 -111.655196 -16.722268 -47.504231 -1.656853 41.400962 21.805122 30.98082 -16.468654 -12.479439
-2.3438 71.8456 3.3583000000000003 -179.399538 -1.214773 -178.356319 0.844397 -2.167866 65.888818 7.207376 -6.38685 -49.242177 37.31189 2.612326 129.215414 50.093282 58.556932 158.054096 174.392675 -0.483128 9.841131 -36.633468 12.033579 -35.321883 -163.899095 -29.633452 169.803409 -88.5289 -79.093732 -91.543021 -166.000162 -26.574368 -123.668827 -6.578205 -52.16047 -2.493063 -11.331907 29.400667 -29.863058 -138.667556 -47.047084 48.839349 -23.857134 -0.817781 -3.097868 -72.113971 -30.816251 -154.97497 60.400447 -45.300196 30.437934 -161.150527 20.466846 86.676277 -34.65279 69.116738 84.351098 39.783235 50.55933 -73.130731 -49.782622 31.091991 160.400021 -39.433336 3.876719 140.343436 11.811458 22.676293 -21.926903 16.831905 5.448888 30.435114 -127.443376 7.678394 -149.285191 141.025497 60.93203 -103.922026 -107.890404 0.645276 -46.926783 99.580057 53.114942 -0.759302 150.926418 -16.520404 -96.41908 173.34713 -20.814002 -97.521939 143.469734 -47.541773 -114.054056 -13.972275 7.517766 -64.202298 106.021507 17.947164 -127.111081 -98.565241 -4.08341 -29.685719 28.850911 -32.348551 28.496411 -45.36518 -46.005322 -19.995709 -18.622828 28.878347 34.90552 -47.40544 -37.576473 0.0 74.848071 -17.467769 21.15889 -107.053146 -31.833899 154.322248 9.412729 26.725649 -15.207513 -4.20277 -56.944154 -180.0 25.90588 -36.379464 149.790718 156.720054 -71.411848 -114.334867
-1.6568 70.9935 4.0125 -179.004841 -4.991083 -176.819984 6.660223 -9.882951 34.228661 11.468732 6.738065 -17.564902 18.662491 -1.750851 163.781996 47.528312 23.715612 144.45745 -158.84062 4.732537 24.950274 -42.375754 10.46897 -26.59494 -150.104831 -21.631024 157.195188 7.961853 0.201042 2.859421 169.627517 59.716507 -111.35423 -13.708897 -27.804554 1.261763 -128.636776 81.916763 86.27588 55.157914 -72.275302 126.41807 -162.145509 -12.794224 140.509176 -121.876735 50.358764 103.78666 -139.692903 -8.604919 103.0113 -107.472458 -59.295367 135.556087 -138.74079 68.765538 177.638008 137.3141 52.405773 -131.224468 -70.457939 -7.342797 -177.595271 87.804647 -6.831903 114.552434 5.187728 22.356813 -28.002326 66.275452 -39.339773 55.188154 178.568804 7.896938 -104.576292 -173.560024 -17.062123 -124.640185 -4.305576 -32.984292 -57.087997 -66.311479 62.046934 52.640511 1.067233 -10.695226 -20.79324 27.123411 76.858895 -13.271653 160.836221 -40.595488 -120.717476 160.363564 -44.380791 -138.710869 -79.121174 -41.092413 -112.189558 -30.823488 17.143964 136.794946 115.895339 -0.722244 145.827928 134.871188 47.838829 108.883588 -126.770111 26.936205 0.0 110.133428 -24.83229 -129.098831 -88.568114 -17.888004 -90.834093 -126.269718 32.051501 174.037095 45.123404 -54.834904 4.302548 -46.863373 12.310792 11.662158 -17.252562 36.574238 95.892341 60.364407 -54.344648 -25.813716
